<svg xmlns="http://www.w3.org/2000/svg" xmlns:xlink="http://www.w3.org/1999/xlink" viewBox="0 0 500 97.09"><defs><style>.cls-1{fill:#322828;}.cls-2{fill:url(#linear-gradient);}.cls-3{fill:url(#linear-gradient-2);}.cls-4{fill:url(#linear-gradient-3);}.cls-5{fill:#06525a;}.cls-6{fill:url(#linear-gradient-4);}.cls-7{fill:url(#linear-gradient-5);}.cls-8{fill:#ed1c24;}</style><linearGradient id="linear-gradient" x1="90.22" y1="82.97" x2="90.22" y2="25.84" gradientUnits="userSpaceOnUse"><stop offset="0.05" stop-color="#06525a"/><stop offset="1" stop-color="#00a796"/></linearGradient><linearGradient id="linear-gradient-2" x1="48.16" y1="95.16" x2="48.16" y2="3.11" gradientTransform="translate(96.32 97.78) rotate(-180)" gradientUnits="userSpaceOnUse"><stop offset="0.11" stop-color="#06525a"/><stop offset="0.85" stop-color="#ed1c24"/></linearGradient><linearGradient id="linear-gradient-3" x1="6.1" y1="69.02" x2="6.1" y2="17.47" gradientUnits="userSpaceOnUse"><stop offset="0" stop-color="#f08721"/><stop offset="1" stop-color="#ed1c24"/></linearGradient><linearGradient id="linear-gradient-4" x1="285.99" y1="-99.14" x2="190.29" y2="-16.98" gradientTransform="translate(282.64 -6.37) rotate(180)" gradientUnits="userSpaceOnUse"><stop offset="0.19" stop-color="#f08721"/><stop offset="0.79" stop-color="#00a796"/></linearGradient><linearGradient id="linear-gradient-5" x1="-1.58" y1="6.83" x2="51.73" y2="6.83" gradientTransform="translate(54.26 13.66) rotate(-180)" gradientUnits="userSpaceOnUse"><stop offset="0" stop-color="#ed1c24"/><stop offset="0.78" stop-color="#ed1c24"/></linearGradient></defs><g id="Layer_2" data-name="Layer 2"><path class="cls-1" d="M156.9,31.05v7.28a.37.37,0,0,1-.37.36H146a.36.36,0,0,0-.36.37V72a.37.37,0,0,1-.37.36h-9.4a.37.37,0,0,1-.37-.36V39.06a.36.36,0,0,0-.36-.37H124.63a.37.37,0,0,1-.37-.36V31.05a.37.37,0,0,1,.37-.37h31.9A.37.37,0,0,1,156.9,31.05Z"/><path class="cls-1" d="M179.21,41.08a15,15,0,0,1,6.07,5.86,17.6,17.6,0,0,1,2.2,9,17.6,17.6,0,0,1-2.2,9,14.88,14.88,0,0,1-6.07,5.86,18.43,18.43,0,0,1-8.75,2,18.64,18.64,0,0,1-8.78-2,14.75,14.75,0,0,1-6.09-5.86,17.6,17.6,0,0,1-2.21-9,17.6,17.6,0,0,1,2.21-9,14.81,14.81,0,0,1,6.09-5.86,18.64,18.64,0,0,1,8.78-2A18.43,18.43,0,0,1,179.21,41.08ZM165.6,49.85a8.51,8.51,0,0,0-2,6,8.4,8.4,0,0,0,2,6A6.49,6.49,0,0,0,170.46,64a6.38,6.38,0,0,0,4.83-2.06,8.44,8.44,0,0,0,2-6,8.55,8.55,0,0,0-2-6,6.34,6.34,0,0,0-4.83-2.09A6.45,6.45,0,0,0,165.6,49.85Z"/><path class="cls-1" d="M210.51,40.75a10.15,10.15,0,0,1,3.34,3.37.36.36,0,0,0,.67-.2v-4.1a.36.36,0,0,1,.37-.36h9.28a.36.36,0,0,1,.36.36V72.15a19,19,0,0,1-1.76,8.27,13.54,13.54,0,0,1-5.42,5.86,17.38,17.38,0,0,1-9.07,2.18q-7.42,0-11.87-3.5a14.15,14.15,0,0,1-5.26-9.08.36.36,0,0,1,.36-.43h9.24a.35.35,0,0,1,.35.27,5,5,0,0,0,2.08,2.85,7.83,7.83,0,0,0,4.39,1.12,7.07,7.07,0,0,0,5-1.8q1.9-1.8,1.91-5.74V67.86a.36.36,0,0,0-.67-.2A10.15,10.15,0,0,1,210.51,71,11.85,11.85,0,0,1,204,72.74a13.29,13.29,0,0,1-7.28-2,13.77,13.77,0,0,1-5.06-5.86,20.24,20.24,0,0,1-1.86-9,20.22,20.22,0,0,1,1.86-9,13.86,13.86,0,0,1,5.06-5.83A13.29,13.29,0,0,1,204,39,11.85,11.85,0,0,1,210.51,40.75ZM202.06,50a8.34,8.34,0,0,0-2,5.89,8.34,8.34,0,0,0,2,5.89,7.4,7.4,0,0,0,10.43-.06,8.21,8.21,0,0,0,2-5.83,8.2,8.2,0,0,0-2-5.86,7.44,7.44,0,0,0-10.43,0Z"/><path class="cls-1" d="M260.92,57.72H238.83a.36.36,0,0,0-.37.39,7.28,7.28,0,0,0,1.86,4.94,6.08,6.08,0,0,0,4.36,1.62,6,6,0,0,0,3.71-1.12,5.24,5.24,0,0,0,1.87-2.63.36.36,0,0,1,.34-.26h9.94a.37.37,0,0,1,.36.45,13.8,13.8,0,0,1-2.73,5.77,15.18,15.18,0,0,1-5.54,4.3,18.88,18.88,0,0,1-16-.48,14.38,14.38,0,0,1-5.86-5.86,18.09,18.09,0,0,1-2.12-9,18.28,18.28,0,0,1,2.09-9,14.31,14.31,0,0,1,5.86-5.83,19.27,19.27,0,0,1,17.2,0,14.12,14.12,0,0,1,5.74,5.62,16.73,16.73,0,0,1,2,8.34,14.06,14.06,0,0,1-.23,2.4A.38.38,0,0,1,260.92,57.72Zm-11.32-9.1A6.4,6.4,0,0,0,245.15,47a6.61,6.61,0,0,0-4.6,1.65,6.7,6.7,0,0,0-2,4.42.38.38,0,0,0,.37.41H251a.37.37,0,0,0,.37-.38A5.87,5.87,0,0,0,249.6,48.62Z"/><path class="cls-1" d="M284.2,64V72a.36.36,0,0,1-.36.36h-4.17q-5.78,0-9-2.85T267.47,60V48.3a.36.36,0,0,0-.36-.36h-3.69a.37.37,0,0,1-.37-.37V39.82a.37.37,0,0,1,.37-.36h3.69a.37.37,0,0,0,.36-.37V31.75a.37.37,0,0,1,.37-.36h9.34a.36.36,0,0,1,.36.36v7.34a.38.38,0,0,0,.37.37h11.78a.36.36,0,0,1,.36.36v7.75a.36.36,0,0,1-.36.37H277.91a.37.37,0,0,0-.37.36V60.19a3.69,3.69,0,0,0,.8,2.71,3.8,3.8,0,0,0,2.68.77h2.82A.36.36,0,0,1,284.2,64Z"/><path class="cls-1" d="M318.51,42.87q3.33,3.78,3.33,10.37V72a.36.36,0,0,1-.37.36h-9.34a.36.36,0,0,1-.36-.36V54.42A7.26,7.26,0,0,0,310,49.26a6.06,6.06,0,0,0-4.62-1.85,6.29,6.29,0,0,0-4.86,1.94,7.86,7.86,0,0,0-1.8,5.54V72a.36.36,0,0,1-.37.36H289a.36.36,0,0,1-.36-.36V29.1a.36.36,0,0,1,.36-.36h9.34a.36.36,0,0,1,.37.36v15a.37.37,0,0,0,.68.19A10.76,10.76,0,0,1,303,40.81a12.35,12.35,0,0,1,6.57-1.71A11.38,11.38,0,0,1,318.51,42.87Z"/><path class="cls-1" d="M357.93,57.72H335.84a.36.36,0,0,0-.37.39,7.28,7.28,0,0,0,1.86,4.94,6.08,6.08,0,0,0,4.36,1.62,6,6,0,0,0,3.71-1.12,5.24,5.24,0,0,0,1.87-2.63.36.36,0,0,1,.34-.26h9.94a.37.37,0,0,1,.36.45,13.8,13.8,0,0,1-2.73,5.77,15.18,15.18,0,0,1-5.54,4.3,18.88,18.88,0,0,1-16.05-.48,14.44,14.44,0,0,1-5.86-5.86,18.2,18.2,0,0,1-2.12-9,18.28,18.28,0,0,1,2.09-9,14.31,14.31,0,0,1,5.86-5.83,19.27,19.27,0,0,1,17.2,0,14.12,14.12,0,0,1,5.74,5.62,16.73,16.73,0,0,1,2,8.34,13.11,13.11,0,0,1-.23,2.4A.38.38,0,0,1,357.93,57.72Zm-11.32-9.1A6.4,6.4,0,0,0,342.16,47a6.56,6.56,0,0,0-4.59,1.65,6.66,6.66,0,0,0-2,4.42.38.38,0,0,0,.37.41H348a.38.38,0,0,0,.37-.38A5.91,5.91,0,0,0,346.61,48.62Z"/><path class="cls-1" d="M377.53,40.87a12.4,12.4,0,0,1,6.07-1.76.37.37,0,0,1,.38.37v10a.36.36,0,0,1-.37.36h-2.52a9.93,9.93,0,0,0-6.21,1.71q-2.2,1.71-2.21,5.77V72a.36.36,0,0,1-.36.36H363a.36.36,0,0,1-.36-.36V39.82a.36.36,0,0,1,.36-.36h9.35a.36.36,0,0,1,.36.36v4.65a.36.36,0,0,0,.65.21A14.06,14.06,0,0,1,377.53,40.87Z"/><path class="cls-2" d="M84.12,97.05V9.66L95.19.17a.68.68,0,0,1,1.13.52v95.5a.85.85,0,0,1-.86.86Z"/><path class="cls-3" d="M42.06.73H53.8a.46.46,0,0,1,.46.46V97.05a0,0,0,0,1,0,0H42.52a.46.46,0,0,1-.46-.46V.73A0,0,0,0,1,42.06.73Z" transform="translate(96.32 97.78) rotate(180)"/><path class="cls-4" d="M12.21,87.42,1.13,96.92A.68.68,0,0,1,0,96.4V1.59A.87.87,0,0,1,.86.73H12.21Z"/><path class="cls-5" d="M42.06,84.85H96.32a0,0,0,0,1,0,0V96.59a.46.46,0,0,1-.46.46H42.52a.46.46,0,0,1-.46-.46V84.85a0,0,0,0,1,0,0Z"/><path class="cls-6" d="M0,96.4V81.8L95.19.17a.68.68,0,0,1,1.13.52v14.6L1.13,96.92A.68.68,0,0,1,0,96.4Z"/><path class="cls-7" d="M0,.73H54.26a0,0,0,0,1,0,0V12.47a.46.46,0,0,1-.46.46H.46A.46.46,0,0,1,0,12.47V.73a0,0,0,0,1,0,0Z" transform="translate(54.26 13.66) rotate(180)"/><path class="cls-1" d="M410.84,64.55h10.27a.69.69,0,0,1,.69.69v6.4a.69.69,0,0,1-.69.69H400.69a.69.69,0,0,1-.69-.69V39.91a.69.69,0,0,1,.69-.69h8.77a.69.69,0,0,1,.69.69v24A.68.68,0,0,0,410.84,64.55Z"/><path class="cls-1" d="M436.08,39.91V71.64a.69.69,0,0,1-.69.69h-8.77a.68.68,0,0,1-.68-.69V39.91a.68.68,0,0,1,.68-.69h8.77A.69.69,0,0,1,436.08,39.91Z"/><path class="cls-1" d="M457.53,60.31l6.38-20.6a.69.69,0,0,1,.66-.49h9.31a.69.69,0,0,1,.65.92L463.27,71.87a.7.7,0,0,1-.65.46H451a.7.7,0,0,1-.65-.46L439.11,40.14a.69.69,0,0,1,.65-.92h9.32a.69.69,0,0,1,.65.48l6.49,20.61A.69.69,0,0,0,457.53,60.31Z"/><circle class="cls-8" cx="386.95" cy="66.16" r="6.17"/><path class="cls-1" d="M487.42,48.21v2.87a.71.71,0,0,0,.71.71h9.76a.71.71,0,0,1,.71.71v5.75a.7.7,0,0,1-.71.7h-9.76a.71.71,0,0,0-.71.71v3.68a.7.7,0,0,0,.71.7h11.16a.71.71,0,0,1,.71.71v6.87a.71.71,0,0,1-.71.71h-21a.7.7,0,0,1-.7-.71V40a.7.7,0,0,1,.7-.71h21A.71.71,0,0,1,500,40V46.8a.71.71,0,0,1-.71.71H488.13A.7.7,0,0,0,487.42,48.21Z"/></g></svg>